<?xml version="1.0" encoding="UTF-8"?>
<svg width="500px" height="500px" viewBox="0 0 500 500" version="1.1" xmlns="http://www.w3.org/2000/svg" xmlns:xlink="http://www.w3.org/1999/xlink">
    <!-- Generator: Sketch 49 (51002) - http://www.bohemiancoding.com/sketch -->
    <title>Squre</title>
    <desc>Created with Sketch.</desc>
    <defs>
        <filter x="-1.9%" y="-1.9%" width="107.7%" height="107.7%" filterUnits="objectBoundingBox" id="filter-1">
            <feOffset dx="11" dy="11" in="SourceAlpha" result="shadowOffsetOuter1"></feOffset>
            <feGaussianBlur stdDeviation="5.5" in="shadowOffsetOuter1" result="shadowBlurOuter1"></feGaussianBlur>
            <feColorMatrix values="0 0 0 0 0   0 0 0 0 0   0 0 0 0 0  0 0 0 0.472231658 0" type="matrix" in="shadowBlurOuter1" result="shadowMatrixOuter1"></feColorMatrix>
            <feMerge>
                <feMergeNode in="shadowMatrixOuter1"></feMergeNode>
                <feMergeNode in="SourceGraphic"></feMergeNode>
            </feMerge>
        </filter>
        <path d="M165,280 C166.819793,280 168.634417,279.155168 170.035451,277.759134 C171.296898,276.502189 172,274.827979 172,273.009529 C172,271.191079 171.291728,269.377781 169.901034,267.971444 C167.243722,265.318465 162.621861,265.318465 159.95938,268.120835 C158.692762,269.372629 158,271.191079 158,273.004377 C158,274.817676 158.692762,276.497037 159.95938,277.88792 C161.355244,279.155168 163.180207,280 165,280 Z" id="path-2"></path>
        <filter x="-78.6%" y="-78.6%" width="414.3%" height="414.3%" filterUnits="objectBoundingBox" id="filter-3">
            <feOffset dx="11" dy="11" in="SourceAlpha" result="shadowOffsetOuter1"></feOffset>
            <feGaussianBlur stdDeviation="5.5" in="shadowOffsetOuter1" result="shadowBlurOuter1"></feGaussianBlur>
            <feColorMatrix values="0 0 0 0 0   0 0 0 0 0   0 0 0 0 0  0 0 0 0.5 0" type="matrix" in="shadowBlurOuter1"></feColorMatrix>
        </filter>
        <path d="M202.997416,243 C204.816537,243 206.496124,242.301939 208.036176,240.890305 C209.302326,239.489012 210,237.808495 210,235.983195 C210,234.157895 209.302326,232.337765 207.901809,230.926131 C205.24031,228.40277 200.75969,228.268329 197.963824,231.060572 C196.697674,232.337765 196,234.157895 196,235.978024 C196,237.798153 196.697674,239.483841 198.098191,241.019575 C199.359173,242.301939 201.178295,243 202.997416,243 Z" id="path-4"></path>
        <filter x="-78.6%" y="-78.6%" width="414.3%" height="414.3%" filterUnits="objectBoundingBox" id="filter-5">
            <feOffset dx="11" dy="11" in="SourceAlpha" result="shadowOffsetOuter1"></feOffset>
            <feGaussianBlur stdDeviation="5.5" in="shadowOffsetOuter1" result="shadowBlurOuter1"></feGaussianBlur>
            <feColorMatrix values="0 0 0 0 0   0 0 0 0 0   0 0 0 0 0  0 0 0 0.5 0" type="matrix" in="shadowBlurOuter1"></feColorMatrix>
        </filter>
        <path d="M282.403167,317 L207.596833,317 C203.952497,317 201,320.128319 201,324 C201,327.871681 203.952497,331 207.596833,331 L282.403167,331 C286.052375,331 289,327.871681 289,324 C289,320.128319 286.052375,317 282.403167,317 Z" id="path-6"></path>
        <filter x="-12.5%" y="-78.6%" width="150.0%" height="414.3%" filterUnits="objectBoundingBox" id="filter-7">
            <feOffset dx="11" dy="11" in="SourceAlpha" result="shadowOffsetOuter1"></feOffset>
            <feGaussianBlur stdDeviation="5.5" in="shadowOffsetOuter1" result="shadowBlurOuter1"></feGaussianBlur>
            <feColorMatrix values="0 0 0 0 0   0 0 0 0 0   0 0 0 0 0  0 0 0 0.5 0" type="matrix" in="shadowBlurOuter1"></feColorMatrix>
        </filter>
        <path d="M279.480235,427.932391 C283.086811,427.932391 286,430.852876 286,434.461384 C286,438.069892 283.086811,440.985566 279.480235,440.985566 L205.547833,441 C126.020182,441 125.08122,361.266414 125.08122,360.462919 L125.08122,297.309223 C112.268004,302.510286 96.4260338,299.936217 86.3622901,289.837207 C79.6788086,283.159062 75.9951895,274.262888 76.0000047,264.803786 C76.0000047,255.330251 79.6932542,246.44851 86.3815508,239.760743 C92.7135236,233.400146 101.130473,229.791639 110.163766,229.512581 C112.889163,217.883563 118.701095,207.409268 127.195087,198.931681 C135.669819,190.444471 146.152484,184.617934 157.781164,181.889902 C158.026739,172.940803 161.604424,164.487272 168.02307,158.049694 C181.447815,144.64048 204.762957,144.664536 218.110659,158.03526 C224.803771,164.732651 228.48739,173.628825 228.482575,183.087926 C228.482575,190.439659 226.253143,197.449787 222.121711,203.353306 C231.713566,214.890908 236.928415,229.272014 236.91397,244.451803 C236.909155,257.264411 233.162938,269.499657 226.214621,279.93065 L279.47542,279.93065 C283.081996,279.93065 285.995185,282.846325 285.995185,286.454832 C285.995185,290.06334 283.081996,292.979014 279.47542,292.979014 L214.2874,292.979014 C202.653904,302.996232 188.140927,308.712108 172.621575,308.712108 L172.616759,308.712108 C160.785842,308.712108 149.48941,305.445205 139.603828,299.493573 C143.350044,319.138289 156.827757,353.938738 205.547833,353.938738 L278.33422,353.938738 L279.47542,353.938738 C283.081996,353.938738 285.918142,356.854412 285.918142,360.462919 C285.918142,362.96963 284.483216,365.139545 282.393424,366.236532 L279.480235,366.987101 C224.712282,366.987101 214.460746,410.982027 212.539486,427.946825 L279.480235,427.932391 Z M95.5833758,280.60905 C104.014771,289.06258 118.734802,289.06258 127.175827,280.642729 C128.447036,279.367723 130.117907,278.732626 131.779147,278.732626 C133.450017,278.732626 135.120888,279.362912 136.392097,280.642729 C146.070626,290.332775 158.936809,295.658933 172.621575,295.658933 L172.62639,295.658933 C180.460701,295.658933 187.933874,293.729584 194.785887,290.414568 C194.251401,290.000792 193.610981,289.808339 193.119831,289.307959 C186.344861,282.552833 173.305331,258.510549 180.065856,251.755422 C186.840826,244.971428 210.85417,258.029414 217.614695,264.808597 C218.101029,265.294543 218.288821,265.920018 218.702927,266.454077 C221.97244,259.631592 223.869624,252.2125 223.87444,244.437369 C223.88407,230.734662 218.548841,217.845073 208.851052,208.145404 C206.982759,206.26898 206.424197,203.463967 207.435387,201.029427 L209.202561,198.580453 C213.228058,194.384961 215.443045,188.890407 215.443045,183.078304 C215.443045,177.097804 213.117309,171.478154 208.889573,167.258606 C200.443733,158.790641 185.728517,158.819509 177.244155,167.268229 C172.279696,172.252781 170.016558,179.185927 171.056638,186.28747 C171.307028,187.995497 170.864031,189.756449 169.819135,191.146927 C168.783869,192.537405 167.228564,193.456372 165.509541,193.696939 C154.35275,195.260626 144.289006,200.259612 136.406543,208.150215 C128.528895,216.026385 123.535544,226.07247 121.975423,237.225165 C121.734664,238.947626 120.824593,240.492067 119.433004,241.536128 C118.051045,242.585001 116.293501,243.027645 114.59374,242.787078 C107.520228,241.733393 100.504498,244.066895 95.5978214,248.984088 C91.370086,253.203637 89.04435,258.823286 89.04435,264.803786 C89.04435,270.779475 91.3604556,276.389501 95.5833758,280.60905 Z M138.125565,360.462919 C138.135195,363.11397 139.093418,423.958221 199.519217,427.759182 C201.026371,414.412515 207.218703,384.35124 232.493627,366.991913 L205.547833,366.991913 C168.962031,366.991913 149.007891,350.113719 138.125565,331.806557 L138.125565,360.462919 Z" id="path-8"></path>
        <filter x="-5.2%" y="-3.8%" width="121.0%" height="115.0%" filterUnits="objectBoundingBox" id="filter-9">
            <feOffset dx="11" dy="11" in="SourceAlpha" result="shadowOffsetOuter1"></feOffset>
            <feGaussianBlur stdDeviation="5.5" in="shadowOffsetOuter1" result="shadowBlurOuter1"></feGaussianBlur>
            <feColorMatrix values="0 0 0 0 0   0 0 0 0 0   0 0 0 0 0  0 0 0 0.5 0" type="matrix" in="shadowBlurOuter1"></feColorMatrix>
        </filter>
        <path d="M399.44833,124.720062 L378.126084,124.720062 L404.081288,98.6887668 C406.639571,96.1224375 406.639571,91.9678893 404.081288,89.40156 C401.518169,86.8352307 397.373655,86.8352307 394.820208,89.40156 L331.748143,152.649472 L331.748143,131.285991 C331.748143,127.654393 328.822319,124.720062 325.2001,124.720062 C321.582717,124.720062 318.652057,127.659235 318.652057,131.285991 L318.652057,165.786173 L294.59743,189.919352 L294.59743,96.7615987 L327.903465,63.3702651 L362.316961,63.3702651 C365.93918,63.3702651 368.86984,60.4310917 368.86984,56.8043358 C368.86984,53.1727378 365.93918,50.2384065 362.316961,50.2384065 L340.999551,50.2384065 L366.954755,24.2167959 C369.508202,21.6504666 369.508202,17.4959184 366.954755,14.9295891 C364.396472,12.3632598 360.247122,12.3632598 357.688839,14.9295891 L320.571978,52.1607324 C320.562306,52.1607324 309.723054,63.0248598 288.054223,84.7531145 L260.18877,56.7994937 L292.682345,24.2119537 C295.240627,21.6456245 295.240627,17.4910763 292.682345,14.924747 C290.128898,12.3584177 285.979547,12.3584177 283.421265,14.924747 L250.92769,47.5074448 L218.419607,14.924747 C215.861324,12.3584177 211.716809,12.3584177 209.158527,14.924747 C206.600244,17.4910763 206.600244,21.6456245 209.158527,24.2119537 L235.108895,50.2335644 L213.791485,50.2335644 C210.174102,50.2335644 207.243442,53.1678956 207.243442,56.7994937 C207.243442,60.4310917 210.174102,63.365423 213.791485,63.365423 L248.209817,63.365423 L281.50618,96.7567566 L281.50618,124.545745 L184.141521,89.3676651 L183.222667,56.6009663 C183.116273,52.9838947 179.924465,50.4078811 176.486017,50.2287223 C172.868634,50.330407 170.020187,53.3567387 170.121745,56.9786525 L170.982566,87.474392 L139.548091,87.474392 C135.925872,87.474392 133.000048,90.4087232 133.000048,94.0403213 C133.000048,97.6719193 135.925872,100.606251 139.548091,100.606251 L161.595748,100.606251 L134.982838,126.560071 C132.390703,129.087664 132.33267,133.256738 134.852264,135.847278 C136.138659,137.16918 137.836121,137.837394 139.548091,137.837394 C141.192356,137.837394 142.841457,137.222443 144.113344,135.978016 L179.348972,101.608572 L278.57552,137.454866 C279.300931,137.726025 280.06503,137.842236 280.785605,137.842236 C280.959704,137.842236 281.190223,247.372848 281.477163,466.434071 C281.477163,470.051142 284.398152,473 288.025206,473 C291.642589,473 294.573249,470.051142 294.573249,466.434071 L294.587758,208.488924 L327.903465,175.083064 L362.316961,175.083064 C365.93918,175.083064 368.86984,172.134206 368.86984,168.517134 C368.86984,164.885536 365.93918,161.951205 362.316961,161.951205 L340.999551,161.951205 L365.025162,137.856762 L399.44833,137.856762 C403.070549,137.856762 405.996373,134.922431 405.996373,131.290833 C405.996373,127.659235 403.070549,124.720062 399.44833,124.720062 Z" id="path-10"></path>
        <filter x="-4.0%" y="-2.4%" width="116.1%" height="109.6%" filterUnits="objectBoundingBox" id="filter-11">
            <feOffset dx="11" dy="11" in="SourceAlpha" result="shadowOffsetOuter1"></feOffset>
            <feGaussianBlur stdDeviation="5.5" in="shadowOffsetOuter1" result="shadowBlurOuter1"></feGaussianBlur>
            <feColorMatrix values="0 0 0 0 0   0 0 0 0 0   0 0 0 0 0  0 0 0 0.5 0" type="matrix" in="shadowBlurOuter1"></feColorMatrix>
        </filter>
        <rect id="path-12" x="239" y="237" width="232" height="232"></rect>
        <filter x="-4.7%" y="-4.7%" width="119.0%" height="119.0%" filterUnits="objectBoundingBox" id="filter-13">
            <feOffset dx="11" dy="11" in="SourceAlpha" result="shadowOffsetOuter1"></feOffset>
            <feGaussianBlur stdDeviation="5.5" in="shadowOffsetOuter1" result="shadowBlurOuter1"></feGaussianBlur>
            <feComposite in="shadowBlurOuter1" in2="SourceAlpha" operator="out" result="shadowBlurOuter1"></feComposite>
            <feColorMatrix values="0 0 0 0 0   0 0 0 0 0   0 0 0 0 0  0 0 0 0.5 0" type="matrix" in="shadowBlurOuter1"></feColorMatrix>
        </filter>
    </defs>
    <g id="Squre" stroke="none" stroke-width="1" fill="none" fill-rule="evenodd">
        <g id="noun_176779_cc" filter="url(#filter-1)" transform="translate(-69.000000, 0.000000)">
            <rect id="Rectangle-2" fill="#580094" x="69" y="0" width="500" height="500"></rect>
            <g id="Shape" fill-rule="nonzero">
                <use fill="black" fill-opacity="1" filter="url(#filter-3)" xlink:href="#path-2"></use>
                <use fill="#A5D453" fill-rule="evenodd" xlink:href="#path-2"></use>
            </g>
            <g id="Shape" fill-rule="nonzero">
                <use fill="black" fill-opacity="1" filter="url(#filter-5)" xlink:href="#path-4"></use>
                <use fill="#A5D453" fill-rule="evenodd" xlink:href="#path-4"></use>
            </g>
            <g id="Shape" fill-rule="nonzero">
                <use fill="black" fill-opacity="1" filter="url(#filter-7)" xlink:href="#path-6"></use>
                <use fill="#A5D453" fill-rule="evenodd" xlink:href="#path-6"></use>
            </g>
            <g id="Shape" fill-rule="nonzero">
                <use fill="black" fill-opacity="1" filter="url(#filter-9)" xlink:href="#path-8"></use>
                <use fill="#A5D453" fill-rule="evenodd" xlink:href="#path-8"></use>
            </g>
            <g id="Shape" fill-rule="nonzero">
                <use fill="black" fill-opacity="1" filter="url(#filter-11)" xlink:href="#path-10"></use>
                <use fill="#A5D453" fill-rule="evenodd" xlink:href="#path-10"></use>
            </g>
        </g>
        <g id="Rectangle">
            <use fill="black" fill-opacity="1" filter="url(#filter-13)" xlink:href="#path-12"></use>
            <use fill="#C8E701" fill-rule="evenodd" xlink:href="#path-12"></use>
            <rect stroke="#26435C" stroke-width="9" x="243.5" y="241.5" width="223" height="223"></rect>
        </g>
        <text id="JM" font-family="Avenir-Book, Avenir" font-size="72" font-weight="normal" fill="#26435C">
            <tspan x="355" y="442">JM</tspan>
        </text>
    </g>
</svg>