<svg xmlns="http://www.w3.org/2000/svg" xmlns:xlink="http://www.w3.org/1999/xlink" version="1.1" x="0px" y="0px" viewBox="0 0 100 125" enable-background="new 0 0 100 100" xml:space="preserve"><path d="M34.224,57.609c0.352,0,0.703-0.164,0.974-0.435c0.244-0.244,0.38-0.569,0.38-0.922s-0.137-0.705-0.406-0.978  c-0.514-0.515-1.408-0.515-1.923,0.029c-0.245,0.243-0.379,0.596-0.379,0.948s0.134,0.678,0.379,0.948  C33.519,57.445,33.872,57.609,34.224,57.609z"/><path d="M42.024,49.796c0.352,0,0.677-0.135,0.975-0.408c0.245-0.271,0.38-0.596,0.38-0.949s-0.135-0.705-0.406-0.978  c-0.515-0.488-1.382-0.514-1.923,0.026c-0.245,0.247-0.38,0.599-0.38,0.951s0.135,0.678,0.406,0.975  C41.32,49.661,41.672,49.796,42.024,49.796z"/><path d="M58.258,65.378H42.904c-0.748,0-1.354,0.606-1.354,1.356s0.606,1.356,1.354,1.356h15.354c0.749,0,1.354-0.606,1.354-1.356  S59.007,65.378,58.258,65.378z"/><path d="M58.258,88.449l-13.902,0.003c0.399-3.526,2.528-12.67,13.902-12.67l0.605-0.156c0.434-0.228,0.732-0.679,0.732-1.2  c0-0.75-0.589-1.356-1.338-1.356h-0.237H42.904c-10.118,0-12.917-7.233-13.695-11.316c2.053,1.237,4.399,1.916,6.856,1.916h0.001  c3.223,0,6.237-1.188,8.653-3.27h13.538c0.749,0,1.354-0.606,1.354-1.356s-0.605-1.356-1.354-1.356H47.196  c1.443-2.168,2.221-4.711,2.222-7.374c0.003-3.155-1.08-6.144-3.072-8.542c0.858-1.227,1.321-2.684,1.321-4.212  c0.001-1.966-0.764-3.815-2.154-5.207c-2.772-2.779-7.614-2.784-10.402,0.003c-1.333,1.338-2.076,3.095-2.127,4.955  c-2.415,0.567-4.592,1.778-6.352,3.542c-1.764,1.762-2.971,3.939-3.537,6.356c-1.876,0.058-3.624,0.808-4.939,2.13  C16.767,50.729,16,52.575,16,54.544c-0.001,1.966,0.764,3.815,2.152,5.203c2.09,2.099,5.38,2.634,8.041,1.553v13.126  c0,0.167,0.195,16.739,16.711,16.739l15.354-0.003c0.749,0,1.354-0.606,1.354-1.356S59.007,88.449,58.258,88.449z M20.067,57.829  c-0.877-0.877-1.358-2.043-1.358-3.285c0-1.243,0.483-2.411,1.361-3.288c1.019-1.022,2.476-1.507,3.945-1.288  c0.353,0.05,0.718-0.042,1.005-0.26c0.289-0.217,0.478-0.538,0.528-0.896c0.324-2.318,1.361-4.406,2.997-6.043  c1.637-1.64,3.727-2.679,6.044-3.004c0.357-0.05,0.68-0.241,0.895-0.53c0.217-0.289,0.309-0.655,0.257-1.01  c-0.216-1.476,0.254-2.917,1.285-3.953c1.762-1.756,4.818-1.762,6.572-0.002c0.878,0.877,1.361,2.045,1.361,3.288  c0,1.208-0.46,2.35-1.296,3.222l-0.367,0.509c-0.21,0.506-0.094,1.089,0.294,1.479c2.014,2.016,3.122,4.695,3.12,7.543  c-0.001,1.616-0.395,3.158-1.074,4.576c-0.086-0.111-0.125-0.241-0.226-0.342c-1.404-1.409-6.391-4.123-7.798-2.713  c-1.404,1.404,1.304,6.401,2.711,7.805c0.102,0.104,0.235,0.144,0.346,0.23c-1.423,0.689-2.975,1.09-4.602,1.09h-0.001  c-2.842,0-5.514-1.107-7.524-3.121c-0.264-0.266-0.611-0.397-0.958-0.397c-0.345,0-0.692,0.132-0.956,0.397  C24.875,59.586,21.818,59.586,20.067,57.829z M28.902,74.426V68.47c2.26,3.805,6.404,7.313,14.002,7.313H48.5  c-5.249,3.608-6.535,9.856-6.848,12.63C29.103,87.623,28.904,74.977,28.902,74.426z"/><path d="M82.646,25.572h-4.409l5.367-5.376c0.529-0.53,0.529-1.388,0-1.918c-0.53-0.53-1.387-0.53-1.915,0L68.647,31.34v-4.412  c0-0.75-0.605-1.356-1.354-1.356c-0.748,0-1.354,0.607-1.354,1.356v7.125l-4.974,4.984V19.798l6.887-6.896h7.116  c0.749,0,1.355-0.607,1.355-1.356c0-0.75-0.606-1.356-1.355-1.356H70.56l5.367-5.374c0.528-0.53,0.528-1.388,0-1.918  c-0.529-0.53-1.387-0.53-1.916,0l-7.675,7.689c-0.003,0-0.003,0-0.005,0.002l-6.719,6.729l-5.762-5.773l6.719-6.73  c0.529-0.53,0.529-1.388,0-1.918c-0.528-0.53-1.386-0.53-1.915,0l-6.719,6.729l-6.722-6.729c-0.529-0.53-1.386-0.53-1.915,0  c-0.529,0.53-0.529,1.388,0,1.918l5.366,5.374h-4.408c-0.748,0-1.354,0.606-1.354,1.356c0,0.75,0.606,1.356,1.354,1.356h7.117  l6.885,6.896v5.739l-20.133-7.265l-0.19-6.767c-0.022-0.747-0.682-1.279-1.393-1.316c-0.748,0.021-1.337,0.646-1.316,1.394  l0.178,6.298h-6.5c-0.749,0-1.354,0.606-1.354,1.356s0.605,1.356,1.354,1.356h4.559l-5.503,5.36  c-0.536,0.522-0.548,1.383-0.027,1.918c0.266,0.273,0.617,0.411,0.971,0.411c0.34,0,0.681-0.127,0.944-0.384l7.286-7.098  l20.518,7.403c0.15,0.056,0.308,0.08,0.457,0.08c0.054,0,0.095-0.04,0.148-0.045l-0.005,67.906c0,0.747,0.604,1.356,1.354,1.356  c0.748,0,1.354-0.609,1.354-1.356l0.003-53.271l6.889-6.899h7.116c0.749,0,1.355-0.609,1.355-1.356c0-0.75-0.606-1.356-1.355-1.356  H70.56l4.968-4.976h7.118c0.749,0,1.354-0.606,1.354-1.356C84,26.179,83.395,25.572,82.646,25.572z"/><text x="0" y="115" fill="#000000" font-size="5px" font-weight="bold" font-family="'Helvetica Neue', Helvetica, Arial-Unicode, Arial, Sans-serif">Created by David Lopez</text><text x="0" y="120" fill="#000000" font-size="5px" font-weight="bold" font-family="'Helvetica Neue', Helvetica, Arial-Unicode, Arial, Sans-serif">from the Noun Project</text></svg>